<?xml version="1.0" encoding="utf-8"?>
<!-- Generator: Adobe Illustrator 16.0.0, SVG Export Plug-In . SVG Version: 6.00 Build 0)  -->
<!DOCTYPE svg PUBLIC "-//W3C//DTD SVG 1.1//EN" "http://www.w3.org/Graphics/SVG/1.1/DTD/svg11.dtd">
<svg version="1.1" id="图层_1" xmlns="http://www.w3.org/2000/svg" xmlns:xlink="http://www.w3.org/1999/xlink" x="0px" y="0px"
	 width="595.28px" height="841.89px" viewBox="0 0 595.28 841.89" enable-background="new 0 0 595.28 841.89" xml:space="preserve">
<g>
	<path fill-rule="evenodd" clip-rule="evenodd" fill="#FFFFFF" d="M328,201.89c56,0,112,0,168,0c0,133.333,0,266.667,0,400
		c-22.333,0-44.667,0-67,0c11.788-3.477,15.138-12.092,14.672-23.394c-0.336-8.15,0.03-16.327-0.119-24.489
		c-0.051-2.794-0.446-5.646-1.15-8.351c-1.936-7.432-9.744-13.24-16.609-12.616c-8.243,0.749-14.436,6.349-15.348,14.481
		c-0.555,4.944-0.718,9.991-0.422,14.953c0.294,4.932-1.164,6.564-6.371,6.554c-78.811-0.166-157.621-0.147-236.431-0.03
		c-4.399,0.006-5.97-0.935-5.963-5.723c0.14-107.469,0.13-214.938,0.023-322.406c-0.004-4.269,0.975-5.731,5.516-5.715
		c44.487,0.167,88.974,0.156,133.46,0.013c4.288-0.014,5.742,1.004,5.693,5.533c-0.232,21.824-0.119,43.653-0.098,65.479
		c0.014,14.908,5.976,20.883,20.893,20.898c25.492,0.027,50.984,0.005,76.478,0.012c6.671,0.001,6.695,0.016,6.698,6.546
		c0.01,29.491-0.027,58.982,0.049,88.474c0.01,3.306,0.33,6.677,1.037,9.901c1.674,7.635,10.985,13.104,18.544,11.152
		c9.534-2.463,14.031-8.651,14.041-19.632c0.032-37.156-0.057-74.312,0.07-111.468c0.025-7.572-2.738-13.583-8.346-18.412
		c-21.19-18.246-42.378-36.495-63.625-54.676C357.178,226.556,342.567,214.249,328,201.89z M494.942,453.279
		c0.101-8.141-5.213-15.186-13.725-15.539c-6.77-0.281-13.982,0.944-20.399,3.202c-15.413,5.426-28.938,14.472-40.354,26.045
		c-11.066,11.221-21.186,23.384-31.59,35.248c-3.798,4.331-3.85,4.466-7.829,0.097c-3.021-3.314-5.888-6.812-9.21-9.799
		c-4.676-4.205-12.053-4.809-17.26-1.908c-10.229,5.696-12.483,16.326-4.695,26.191c7.51,9.517,15.515,18.711,23.98,27.385
		c8.188,8.388,18.596,10.668,27.305-1.705c0.861-1.225,1.689-2.474,2.592-3.667c7.719-10.201,15.119-20.665,23.248-30.528
		c15.243-18.495,32.463-34.229,57.056-39.555C491.261,467.187,494.847,461,494.942,453.279z M285.966,388.923
		c3.83,0,7.659,0,11.488,0c17.481-0.003,34.963,0.035,52.444-0.027c7.971-0.028,14.233-3.158,17.53-10.76
		c2.724-6.28,1.37-12.029-2.936-17.187c-4.458-5.339-10.688-5.675-16.878-5.684c-41.123-0.063-82.247-0.054-123.37,0.011
		c-2.97,0.005-6.003,0.352-8.897,1.019c-7.898,1.822-13.37,11.211-11.29,19.007c2.393,8.966,8.691,13.571,18.975,13.6
		C244.011,388.961,264.989,388.919,285.966,388.923z M286.232,470.348c20.657,0,41.314,0.024,61.971-0.029
		c2.818-0.008,5.707-0.086,8.441-0.685c10.299-2.257,15.177-14.686,9.873-23.798c-4.273-7.344-11.129-8.481-18.408-8.5
		c-41.48-0.104-82.961-0.052-124.442-0.047c-1.165,0-2.34-0.032-3.494,0.098c-12.452,1.399-19.303,11.069-15.575,21.948
		c2.51,7.322,8.146,10.949,17.664,10.982C243.585,470.393,264.909,470.341,286.232,470.348z"/>
	<path fill-rule="evenodd" clip-rule="evenodd" d="M328,201.89c14.567,12.358,29.178,24.666,43.692,37.086
		c21.247,18.181,42.435,36.43,63.625,54.676c5.607,4.829,8.371,10.84,8.346,18.412c-0.127,37.156-0.038,74.312-0.07,111.468
		c-0.01,10.98-4.507,17.169-14.041,19.632c-7.559,1.952-16.87-3.518-18.544-11.152c-0.707-3.225-1.027-6.596-1.037-9.901
		c-0.076-29.491-0.039-58.982-0.049-88.474c-0.003-6.53-0.027-6.545-6.698-6.546c-25.493-0.007-50.985,0.016-76.478-0.012
		c-14.917-0.016-20.879-5.99-20.893-20.898c-0.021-21.826-0.135-43.655,0.098-65.479c0.049-4.529-1.405-5.547-5.693-5.533
		c-44.486,0.144-88.974,0.154-133.46-0.013c-4.541-0.017-5.521,1.446-5.516,5.715c0.107,107.469,0.117,214.938-0.023,322.406
		c-0.006,4.788,1.564,5.729,5.963,5.723c78.811-0.117,157.621-0.136,236.431,0.03c5.207,0.011,6.665-1.622,6.371-6.554
		c-0.296-4.962-0.133-10.009,0.422-14.953c0.912-8.133,7.104-13.732,15.348-14.481c6.865-0.624,14.674,5.185,16.609,12.616
		c0.704,2.704,1.1,5.557,1.15,8.351c0.149,8.162-0.217,16.339,0.119,24.489c0.466,11.302-2.884,19.917-14.672,23.394
		c-95.666,0-191.333,0-287,0c-6.343-2.045-10.877-6.199-14-12c0-125.333,0-250.667,0-376c4-4,8-8,12-12
		C202.667,201.89,265.333,201.89,328,201.89z M381.371,294.028c0.238-0.559,0.478-1.116,0.717-1.674
		c-13.83-11.997-27.659-23.994-41.838-36.294c-0.509,1.246-0.947,1.823-0.951,2.402c-0.053,10.808-0.164,21.619,0.104,32.42
		c0.026,1.075,2.385,2.91,3.746,2.993c5.633,0.344,11.298,0.15,16.952,0.151C367.191,294.029,374.281,294.028,381.371,294.028z"/>
	<path fill-rule="evenodd" clip-rule="evenodd" fill="#FFFFFF" d="M128,589.89c3.123,5.801,7.657,9.955,14,12c-4.667,0-9.333,0-14,0
		C128,597.89,128,593.89,128,589.89z"/>
	<path fill-rule="evenodd" clip-rule="evenodd" fill="#FFFFFF" d="M140,201.89c-4,4-8,8-12,12c0-4,0-8,0-12
		C132,201.89,136,201.89,140,201.89z"/>
	<path fill-rule="evenodd" clip-rule="evenodd" d="M494.942,453.279c-0.096,7.722-3.682,13.908-10.881,15.467
		c-24.593,5.326-41.813,21.06-57.056,39.555c-8.129,9.863-15.529,20.327-23.248,30.528c-0.902,1.193-1.73,2.442-2.592,3.667
		c-8.709,12.373-19.117,10.093-27.305,1.705c-8.466-8.674-16.471-17.868-23.98-27.385c-7.788-9.865-5.534-20.495,4.695-26.191
		c5.207-2.9,12.584-2.297,17.26,1.908c3.322,2.987,6.189,6.484,9.21,9.799c3.979,4.369,4.031,4.234,7.829-0.097
		c10.404-11.864,20.523-24.027,31.59-35.248c11.416-11.573,24.94-20.619,40.354-26.045c6.417-2.258,13.63-3.483,20.399-3.202
		C489.729,438.093,495.043,445.138,494.942,453.279z"/>
	<path fill-rule="evenodd" clip-rule="evenodd" d="M285.966,388.921c-20.978-0.002-41.956,0.04-62.933-0.02
		c-10.284-0.028-16.582-4.634-18.975-13.6c-2.08-7.796,3.392-17.185,11.29-19.007c2.894-0.667,5.927-1.014,8.897-1.019
		c41.123-0.064,82.247-0.074,123.37-0.011c6.189,0.009,12.42,0.345,16.878,5.684c4.306,5.157,5.659,10.906,2.936,17.187
		c-3.297,7.602-9.56,10.731-17.53,10.76c-17.481,0.063-34.963,0.024-52.444,0.027C293.625,388.923,289.796,388.923,285.966,388.921z
		"/>
	<path fill-rule="evenodd" clip-rule="evenodd" d="M286.232,470.345c-21.324-0.004-42.647,0.048-63.97-0.027
		c-9.518-0.033-15.154-3.66-17.664-10.982c-3.728-10.879,3.123-20.549,15.575-21.948c1.154-0.13,2.329-0.098,3.494-0.098
		c41.481-0.005,82.961-0.058,124.442,0.047c7.279,0.019,14.135,1.156,18.408,8.5c5.304,9.112,0.426,21.541-9.873,23.798
		c-2.734,0.599-5.623,0.677-8.441,0.685C327.547,470.373,306.89,470.348,286.232,470.345z"/>
	<path fill-rule="evenodd" clip-rule="evenodd" fill="#FFFFFF" d="M381.371,294.028c-7.09,0-14.18,0.001-21.27-0.001
		c-5.654-0.001-11.319,0.192-16.952-0.151c-1.361-0.083-3.72-1.918-3.746-2.993c-0.269-10.801-0.157-21.612-0.104-32.42
		c0.004-0.579,0.442-1.156,0.951-2.402c14.179,12.3,28.008,24.297,41.838,36.294C381.849,292.912,381.609,293.469,381.371,294.028z"
		/>
</g>
</svg>
