<?xml version="1.0" encoding="utf-8"?>
<!-- Generator: Adobe Illustrator 16.0.0, SVG Export Plug-In . SVG Version: 6.00 Build 0)  -->
<!DOCTYPE svg PUBLIC "-//W3C//DTD SVG 1.1//EN" "http://www.w3.org/Graphics/SVG/1.1/DTD/svg11.dtd">
<svg version="1.1" id="图层_1" xmlns="http://www.w3.org/2000/svg" xmlns:xlink="http://www.w3.org/1999/xlink" x="0px" y="0px"
	 width="595.28px" height="841.89px" viewBox="0 0 595.28 841.89" enable-background="new 0 0 595.28 841.89" xml:space="preserve">
<g>
	<path fill-rule="evenodd" clip-rule="evenodd" d="M134.998,191.89c90.655,0,181.311,0,271.966,0
		c15.541,11.481,20.299,27.462,19.833,45.986c-0.411,16.318-0.11,32.655-0.055,48.983c0.007,2.029,0.437,4.056,0.81,7.283
		c1.978-2.211,3.132-3.347,4.11-4.618c6.185-8.033,12.308-16.113,18.495-24.145c7.18-9.32,15.76-9.304,22.973,0.022
		c12.101,15.647,24.204,31.292,36.271,46.965c7.234,9.397,7.355,19.56,0.102,28.892c-26.45,34.03-53.036,67.955-79.373,102.073
		c-1.942,2.516-3.248,6.236-3.273,9.409c-0.244,29.989-0.01,59.982-0.252,89.972c-0.053,6.598-0.693,13.382-2.368,19.737
		c-4.459,16.919-17.019,27.721-34.527,27.779c-78.811,0.264-157.622,0.21-236.431-0.075c-5.918-0.021-12.532-1.537-17.6-4.47
		c-12.653-7.325-19.298-19.348-19.474-33.779c-0.466-38.316-0.198-76.643-0.202-114.965c-0.007-68.647,0.052-137.294-0.047-205.94
		c-0.019-12.361,3.428-23.171,12.181-32.087C130.43,196.579,132.71,194.231,134.998,191.89z M399.305,486.181
		c-0.549-0.11-1.099-0.222-1.647-0.332c-3.815,4.752-7.902,9.313-11.379,14.301c-4.858,6.967-11.271,9.76-19.646,9.439
		c-8.985-0.343-17.994-0.071-26.993-0.077c-13.39-0.009-17.927-3.906-19.833-17.126c-0.236-1.639-0.206-3.324-0.207-4.987
		c-0.016-13.498,0.196-27-0.08-40.494c-0.188-9.12,2.663-16.854,8.268-23.957c23.095-29.271,46.106-58.608,68.952-88.076
		c1.879-2.421,3.198-5.983,3.222-9.027c0.234-30.329,0.167-60.659,0.126-90.988c-0.013-9.456-2.349-11.693-11.835-11.693
		c-77.991-0.004-155.981-0.003-233.971-0.001c-9.619,0-12.135,2.461-12.136,12.053c-0.011,102.82-0.01,205.641-0.001,308.461
		c0,9.271,1.932,11.196,11.074,11.197c78.824,0.003,157.647,0.003,236.47,0c8.513-0.001,10.354-1.698,10.39-10.147
		c0.076-17.831,0.044-35.663-0.012-53.493C400.061,489.549,399.57,487.866,399.305,486.181z M428.553,341.759
		c-0.955,1.164-1.492,1.784-1.992,2.432c-25.986,33.722-51.981,67.437-77.901,101.211c-0.936,1.218-1.544,3.004-1.582,4.543
		c-0.169,6.825,0.025,13.658-0.119,20.483c-0.069,3.289,1.318,4.444,4.473,4.335c4.159-0.146,8.376,0.35,12.472-0.179
		c2.35-0.304,4.741-1.789,6.684-3.297c1.648-1.28,2.662-3.367,3.986-5.076c24.038-31.034,48.066-62.076,72.148-93.076
		c1.873-2.412,2.452-4.555,0.432-7.159C441.037,358.105,435.003,350.172,428.553,341.759z M461.861,299.132
		c-4.111,5.418-7.557,10.085-11.144,14.641c-2.169,2.755-2.289,5.143,0.04,7.981c5.159,6.291,10.039,12.811,15.128,19.162
		c0.944,1.178,2.335,1.999,3.606,3.057c4.114-5.205,7.947-9.792,11.417-14.64c0.787-1.101,1.027-3.622,0.31-4.609
		C475.093,316.299,468.688,308.077,461.861,299.132z"/>
	<path fill-rule="evenodd" clip-rule="evenodd" fill="#FFFFFF" d="M134.998,191.89c-2.287,2.341-4.568,4.688-6.861,7.024
		c-8.753,8.916-12.2,19.726-12.181,32.087c0.099,68.646,0.04,137.293,0.047,205.94c0.004,38.322-0.264,76.648,0.202,114.965
		c0.176,14.432,6.821,26.454,19.474,33.779c5.068,2.933,11.682,4.448,17.6,4.47c78.81,0.285,157.621,0.339,236.431,0.075
		c17.509-0.059,30.068-10.86,34.527-27.779c1.675-6.355,2.315-13.14,2.368-19.737c0.242-29.989,0.008-59.982,0.252-89.972
		c0.025-3.173,1.331-6.894,3.273-9.409c26.337-34.118,52.923-68.043,79.373-102.073c7.254-9.332,7.133-19.495-0.102-28.892
		c-12.067-15.673-24.171-31.317-36.271-46.965c-7.213-9.326-15.793-9.343-22.973-0.022c-6.188,8.031-12.311,16.111-18.495,24.145
		c-0.979,1.271-2.133,2.407-4.11,4.618c-0.373-3.228-0.803-5.254-0.81-7.283c-0.056-16.328-0.356-32.665,0.055-48.983
		c0.466-18.524-4.292-34.505-19.833-45.986c36.662,0,73.323,0,109.986,0c0,133.65,0,267.3,0,400.95c-133.983,0-267.967,0-401.95,0
		c0-133.649,0-267.3,0-400.95C121.666,191.89,128.332,191.89,134.998,191.89z"/>
	<path fill-rule="evenodd" clip-rule="evenodd" fill="#FFFFFF" d="M399.305,486.181c0.266,1.685,0.756,3.368,0.761,5.054
		c0.056,17.83,0.088,35.662,0.012,53.493c-0.036,8.449-1.877,10.146-10.39,10.147c-78.823,0.003-157.646,0.003-236.47,0
		c-9.142-0.001-11.074-1.927-11.074-11.197c-0.009-102.82-0.01-205.642,0.001-308.461c0.001-9.592,2.517-12.053,12.136-12.053
		c77.99-0.002,155.98-0.003,233.971,0.001c9.486,0,11.822,2.237,11.835,11.693c0.041,30.329,0.108,60.659-0.126,90.988
		c-0.023,3.043-1.343,6.605-3.222,9.027c-22.846,29.467-45.857,58.804-68.952,88.076c-5.604,7.104-8.455,14.837-8.268,23.957
		c0.276,13.494,0.064,26.996,0.08,40.494c0.001,1.663-0.029,3.349,0.207,4.987c1.906,13.22,6.443,17.117,19.833,17.126
		c8.999,0.006,18.008-0.266,26.993,0.077c8.376,0.32,14.788-2.473,19.646-9.439c3.477-4.988,7.563-9.549,11.379-14.301
		C398.206,485.959,398.756,486.071,399.305,486.181z M270.243,269.031c-28.475,0-56.95-0.017-85.425,0.01
		c-8.856,0.008-14.439,4.835-15.498,13.631c-1.483,12.322,3.964,21.384,18.215,21.212c32.3-0.388,64.608-0.12,96.914-0.12
		c23.646,0,47.292,0.024,70.938-0.023c5.041-0.01,10.098-0.285,13.545-4.833c4.591-6.057,5.564-12.877,2.9-19.794
		c-2.838-7.372-8.839-10.173-16.664-10.136C326.86,269.111,298.552,269.03,270.243,269.031z M258.989,371.875
		c25.316,0,50.634,0.165,75.944-0.177c3.84-0.052,8.314-1.604,11.318-3.961c4.914-3.856,5.923-14.555,3.029-21.048
		c-2.854-6.405-7.906-8.747-14.818-8.731c-49.964,0.118-99.93,0.193-149.894-0.051c-10.306-0.049-15.733,7.953-15.515,16.856
		c0.217,8.822,4.096,17.501,15.491,17.269C209.35,371.524,234.173,371.875,258.989,371.875z M235.345,474.737
		c-16.662,0-33.322-0.016-49.983,0.006c-10.246,0.013-16.143,6.021-16.349,16.584c-0.215,11.031,5.285,17.958,15.504,18.03
		c33.987,0.24,67.978,0.234,101.962-0.105c3.772-0.037,8.656-1.828,11.042-4.546c5.292-6.03,5.792-13.67,2.679-21.132
		c-2.8-6.714-8.523-8.85-15.372-8.841C268.334,474.753,251.84,474.74,235.345,474.737z M234.678,440.873
		c16.817,0,33.635,0.041,50.451-0.015c10.864-0.036,16.637-6.021,16.838-17.252c0.189-10.597-5.745-16.892-16.518-16.924
		c-33.8-0.103-67.602-0.087-101.402,0.04c-2.893,0.011-6.206,0.496-8.59,1.958c-5.819,3.57-8.019,13.75-5.359,21.862
		c2.354,7.184,6.845,10.3,15.127,10.318C201.709,440.896,218.193,440.871,234.678,440.873z"/>
	<path fill-rule="evenodd" clip-rule="evenodd" fill="#FFFFFF" d="M428.553,341.759c6.45,8.413,12.484,16.346,18.6,24.218
		c2.021,2.604,1.441,4.747-0.432,7.159c-24.082,31-48.11,62.042-72.148,93.076c-1.324,1.709-2.338,3.796-3.986,5.076
		c-1.942,1.508-4.334,2.993-6.684,3.297c-4.096,0.528-8.313,0.033-12.472,0.179c-3.154,0.109-4.542-1.046-4.473-4.335
		c0.145-6.825-0.05-13.658,0.119-20.483c0.038-1.539,0.646-3.325,1.582-4.543c25.92-33.774,51.915-67.489,77.901-101.211
		C427.061,343.543,427.598,342.923,428.553,341.759z"/>
	<path fill-rule="evenodd" clip-rule="evenodd" fill="#FFFFFF" d="M461.861,299.132c6.826,8.944,13.231,17.167,19.357,25.593
		c0.718,0.987,0.478,3.508-0.31,4.609c-3.47,4.847-7.303,9.435-11.417,14.64c-1.271-1.059-2.662-1.879-3.606-3.057
		c-5.089-6.351-9.969-12.871-15.128-19.162c-2.329-2.839-2.209-5.226-0.04-7.981C454.305,309.217,457.75,304.551,461.861,299.132z"
		/>
	<path fill-rule="evenodd" clip-rule="evenodd" d="M270.243,269.03c28.309,0,56.617,0.081,84.925-0.053
		c7.825-0.037,13.826,2.764,16.664,10.136c2.664,6.917,1.69,13.737-2.9,19.794c-3.447,4.548-8.504,4.824-13.545,4.833
		c-23.646,0.048-47.292,0.023-70.938,0.023c-32.305,0-64.613-0.268-96.914,0.12c-14.251,0.172-19.699-8.89-18.215-21.212
		c1.059-8.796,6.642-13.624,15.498-13.631C213.293,269.014,241.768,269.031,270.243,269.03z M355.157,286.856
		c-0.028-0.725-0.056-1.448-0.083-2.173c-1.881-0.602-3.76-1.725-5.643-1.729c-52.303-0.095-104.606-0.098-156.91,0.013
		c-1.931,0.004-3.859,1.306-5.789,2.003c0.024,0.631,0.049,1.261,0.074,1.892c1.824,0.671,3.647,1.927,5.473,1.93
		c52.47,0.105,104.94,0.105,157.411,0C351.514,288.788,353.334,287.529,355.157,286.856z"/>
	<path fill-rule="evenodd" clip-rule="evenodd" d="M258.989,371.875c-24.816,0-49.639-0.351-74.445,0.156
		c-11.395,0.232-15.274-8.446-15.491-17.269c-0.218-8.903,5.209-16.906,15.515-16.856c49.964,0.244,99.93,0.169,149.894,0.051
		c6.912-0.016,11.965,2.326,14.818,8.731c2.894,6.494,1.885,17.192-3.029,21.048c-3.004,2.358-7.479,3.91-11.318,3.961
		C309.623,372.04,284.305,371.875,258.989,371.875z M257.549,358.869c21.128,0,42.257,0,63.385-0.001
		c1.164,0,2.517,0.36,3.448-0.108c1.313-0.662,2.313-1.942,3.448-2.958c-1.18-0.973-2.254-2.142-3.577-2.841
		c-0.782-0.414-1.957-0.09-2.955-0.09c-42.589-0.001-85.179-0.001-127.768,0.001c-1.164,0-2.525-0.339-3.442,0.146
		c-1.172,0.619-1.987,1.916-2.956,2.919c1.013,0.967,1.877,2.28,3.083,2.797c1.127,0.484,2.618,0.133,3.949,0.134
		C215.293,358.87,236.421,358.869,257.549,358.869z"/>
	<path fill-rule="evenodd" clip-rule="evenodd" d="M235.345,474.738c16.495,0.002,32.989,0.016,49.483-0.005
		c6.848-0.009,12.571,2.127,15.372,8.841c3.112,7.462,2.612,15.102-2.679,21.132c-2.385,2.718-7.27,4.509-11.042,4.546
		c-33.985,0.34-67.976,0.346-101.962,0.105c-10.219-0.072-15.72-6.999-15.504-18.03c0.207-10.563,6.103-16.571,16.349-16.584
		C202.023,474.721,218.684,474.737,235.345,474.738z M233.982,494.852c14.325,0,28.649,0.005,42.974-0.005
		c2.292-0.002,5.032,0.517,4.963-3.115c-0.062-3.262-2.548-2.878-4.707-2.878c-28.482-0.001-56.965-0.001-85.447,0
		c-2.156,0-4.646-0.39-4.713,2.872c-0.075,3.631,2.663,3.12,4.957,3.121C206,494.856,219.991,494.852,233.982,494.852z"/>
	<path fill-rule="evenodd" clip-rule="evenodd" d="M234.678,440.872c-16.484-0.001-32.968,0.024-49.453-0.012
		c-8.282-0.019-12.772-3.135-15.127-10.318c-2.66-8.112-0.46-18.292,5.359-21.862c2.384-1.461,5.697-1.947,8.59-1.958
		c33.801-0.127,67.602-0.143,101.402-0.04c10.772,0.032,16.707,6.327,16.518,16.924c-0.201,11.231-5.974,17.216-16.838,17.252
		C268.313,440.914,251.495,440.873,234.678,440.872z M234.487,426.861c13.992,0,27.983,0.024,41.975-0.024
		c2.317-0.009,5.511,0.935,5.438-3.103c-0.066-3.646-3-2.852-5.193-2.854c-28.149-0.027-56.298-0.027-84.448,0
		c-2.195,0.002-5.126-0.786-5.188,2.861c-0.068,4.038,3.129,3.086,5.442,3.095C206.504,426.886,220.496,426.861,234.487,426.861z"/>
	<path fill-rule="evenodd" clip-rule="evenodd" fill="#FFFFFF" d="M355.157,286.856c-1.823,0.673-3.644,1.932-5.468,1.936
		c-52.47,0.105-104.94,0.105-157.411,0c-1.826-0.003-3.648-1.259-5.473-1.93c-0.024-0.631-0.049-1.261-0.074-1.892
		c1.93-0.697,3.858-1.999,5.789-2.003c52.304-0.11,104.607-0.107,156.91-0.013c1.883,0.004,3.762,1.127,5.643,1.729
		C355.102,285.408,355.129,286.131,355.157,286.856z"/>
	<path fill-rule="evenodd" clip-rule="evenodd" fill="#FFFFFF" d="M257.549,358.869c-21.128,0-42.256,0.001-63.384-0.001
		c-1.331-0.001-2.821,0.351-3.949-0.134c-1.206-0.518-2.07-1.831-3.083-2.797c0.969-1.004,1.783-2.301,2.956-2.919
		c0.917-0.484,2.278-0.146,3.442-0.146c42.589-0.002,85.179-0.002,127.768-0.001c0.998,0,2.173-0.324,2.955,0.09
		c1.323,0.7,2.397,1.869,3.577,2.841c-1.135,1.016-2.135,2.295-3.448,2.958c-0.932,0.469-2.284,0.108-3.448,0.108
		C299.807,358.869,278.678,358.869,257.549,358.869z"/>
	<path fill-rule="evenodd" clip-rule="evenodd" fill="#FFFFFF" d="M233.982,494.852c-13.991,0-27.982,0.004-41.974-0.005
		c-2.294-0.001-5.032,0.51-4.957-3.121c0.067-3.262,2.557-2.872,4.713-2.872c28.482-0.001,56.965-0.001,85.447,0
		c2.159,0,4.645-0.384,4.707,2.878c0.069,3.632-2.671,3.113-4.963,3.115C262.631,494.857,248.307,494.852,233.982,494.852z"/>
	<path fill-rule="evenodd" clip-rule="evenodd" fill="#FFFFFF" d="M234.487,426.861c-13.991,0-27.983,0.025-41.974-0.025
		c-2.313-0.009-5.51,0.943-5.442-3.095c0.061-3.646,2.992-2.859,5.188-2.861c28.15-0.027,56.299-0.027,84.448,0
		c2.194,0.002,5.127-0.792,5.193,2.854c0.073,4.037-3.121,3.094-5.438,3.103C262.47,426.885,248.479,426.861,234.487,426.861z"/>
</g>
</svg>
